# xmcd
#
# Track frame offsets:
#	150
#	12898
#	27274
#	42930
#	53621
#	71609
#	80945
#	98779
#	110062
#	127914
#	139043
#	150640
#	165322
#	178369
#	192893
#	210250
#
# Disc length: 3033 seconds
#
# Revision: 0
# Processed by: cddbd v1.5.2PL0 Copyright (c) Steve Scherf et al.
# Submitted via: EasyCDDAExtractor 15.3.0.1
#
DISCID=d20bd710
DTITLE=Καψάλης Γιάννης - Έτσι γλεντάνε οι Έλληνες
DYEAR=2015
DGENRE=Παραδοσιακά ελληνικά
TTITLE0=Ήρθαν μου είπαν δυο αστέρια
TTITLE1=Το μαντήλι
TTITLE2=Έπαθα ζημιά
TTITLE3=Πάρε τ' αμάξι
TTITLE4=Τα Καγκέλια
TTITLE5=Το ραβασάκι
TTITLE6=Ένα πίνω και μεθάω
TTITLE7=Μια αγάπη απ΄τα παλιά
TTITLE8=Να' χα πέτρινη καρδιά
TTITLE9=Σαράντα Ηπειρώτισσες
TTITLE10=Για πάρε με , για πάρε με
TTITLE11=Μούσκεψα πολλά μαντήλια
TTITLE12=Άιντε τα σαράντα φτάνω
TTITLE13=Μαύρα μάτια πυρκαγιά
TTITLE14=Είναι πολλά τα βάσανα
TTITLE15=Σ' ερωτεύτηκα
EXTD=
EXTT0=
EXTT1=
EXTT2=
EXTT3=
EXTT4=
EXTT5=
EXTT6=
EXTT7=
EXTT8=
EXTT9=
EXTT10=
EXTT11=
EXTT12=
EXTT13=
EXTT14=
EXTT15=
PLAYORDER=
